<svg width="18" height="32" viewBox="0 0 18 32" fill="none" xmlns="http://www.w3.org/2000/svg">
<path d="M15.8831 17.0456C15.8831 23.7426 8.73631 25.9417 8.73631 25.9417C8.73631 25.9417 1.58948 23.7426 1.58948 17.0456C1.58948 10.3486 8.73631 1.6691 8.73631 1.6691C8.73631 1.6691 15.8831 10.3319 15.8831 17.0456Z" fill="url(#paint0_linear)"/>
<path d="M7.45357 0.602995C-0.40961 10.1654 -4.20792 21.9935 7.0704 27.0746V30.2232C7.0704 30.665 7.24592 31.0887 7.55834 31.4012C7.87076 31.7136 8.2945 31.8891 8.73633 31.8891C9.17816 31.8891 9.6019 31.7136 9.91432 31.4012C10.2267 31.0887 10.4023 30.665 10.4023 30.2232V27.0746C21.7472 22.0768 17.8823 10.1488 10.0191 0.602995C9.86277 0.414344 9.66677 0.262495 9.44504 0.158268C9.22332 0.0540413 8.98133 0 8.73633 0C8.49133 0 8.24934 0.0540413 8.02762 0.158268C7.80589 0.262495 7.60989 0.414344 7.45357 0.602995ZM10.4023 23.3096V13.0974C10.4023 12.6556 10.2267 12.2319 9.91432 11.9195C9.6019 11.607 9.17816 11.4315 8.73633 11.4315C8.2945 11.4315 7.87076 11.607 7.55834 11.9195C7.24592 12.2319 7.0704 12.6556 7.0704 13.0974V23.3096C0.156806 19.0115 3.90514 11.1816 8.73633 4.43463C13.5009 11.0817 17.3492 18.9948 10.4023 23.3096Z" fill="black"/>
<defs>
<linearGradient id="paint0_linear" x1="8.73631" y1="25.9417" x2="8.73631" y2="1.6691" gradientUnits="userSpaceOnUse">
<stop stop-color="#8CDD79"/>
<stop offset="1" stop-color="#D4E6B6"/>
</linearGradient>
</defs>
</svg>
