<svg width="81" height="32" viewBox="0 0 81 32" fill="none" xmlns="http://www.w3.org/2000/svg">
<path d="M43.716 26.26C41.7 26.26 40.244 25.7933 39.348 24.86C38.4707 23.908 38.032 22.368 38.032 20.24V10.328L31.9 25H30.976L23.472 9.768V25H22.072V6.52H25.488L32.264 20.268L38.004 6.52H41.672V20.24C41.672 21.9947 41.8213 23.2827 42.12 24.104C42.4187 24.9253 42.9507 25.4107 43.716 25.56V26.26ZM47.2213 10.16C47.2213 9.208 47.0906 8.508 46.8293 8.06C46.5679 7.59333 46.0453 7.36 45.2613 7.36H44.9813V6.52H56.7133C58.2999 6.52 59.0933 7.26667 59.0933 8.76V11.14H58.2533C58.2533 9.964 57.9546 9.11467 57.3573 8.592C56.7786 8.05067 55.9106 7.78 54.7533 7.78H50.8613V14.92H57.0213V16.18H50.8613V25H47.2213V10.16ZM62.595 10.16C62.595 9.208 62.4643 8.508 62.203 8.06C61.9417 7.59333 61.419 7.36 60.635 7.36H60.355V6.52H63.715C64.387 6.52 64.9003 6.632 65.255 6.856C65.6097 7.08 65.8617 7.45333 66.011 7.976C66.1603 8.48 66.235 9.208 66.235 10.16V14.78H73.795V6.52H77.435V21.36C77.435 22.312 77.5657 23.0213 77.827 23.488C78.0883 23.936 78.611 24.16 79.395 24.16H79.675V25H76.315C75.643 25 75.1297 24.8973 74.775 24.692C74.4203 24.468 74.1683 24.104 74.019 23.6C73.8697 23.0773 73.795 22.3307 73.795 21.36V16.04H66.235V25H62.595V10.16Z" fill="black"/>
<path d="M15.883 17.0456C15.883 23.7426 8.73618 25.9417 8.73618 25.9417C8.73618 25.9417 1.58936 23.7426 1.58936 17.0456C1.58936 10.3486 8.73618 1.66911 8.73618 1.66911C8.73618 1.66911 15.883 10.3319 15.883 17.0456Z" fill="url(#paint0_linear)"/>
<path d="M7.45357 0.602995C-0.40961 10.1654 -4.20792 21.9935 7.0704 27.0746V30.2232C7.0704 30.665 7.24592 31.0887 7.55834 31.4012C7.87076 31.7136 8.2945 31.8891 8.73633 31.8891C9.17816 31.8891 9.6019 31.7136 9.91432 31.4012C10.2267 31.0887 10.4023 30.665 10.4023 30.2232V27.0746C21.7472 22.0768 17.8823 10.1488 10.0191 0.602995C9.86277 0.414344 9.66677 0.262495 9.44504 0.158268C9.22332 0.0540413 8.98133 0 8.73633 0C8.49133 0 8.24934 0.0540413 8.02762 0.158268C7.80589 0.262495 7.60989 0.414344 7.45357 0.602995ZM10.4023 23.3096V13.0974C10.4023 12.6556 10.2267 12.2319 9.91432 11.9195C9.6019 11.607 9.17816 11.4315 8.73633 11.4315C8.2945 11.4315 7.87076 11.607 7.55834 11.9195C7.24592 12.2319 7.0704 12.6556 7.0704 13.0974V23.3096C0.156806 19.0115 3.90514 11.1816 8.73633 4.43463C13.5009 11.0817 17.3492 18.9948 10.4023 23.3096Z" fill="black"/>
<defs>
<linearGradient id="paint0_linear" x1="8.73618" y1="25.9417" x2="8.73618" y2="1.66911" gradientUnits="userSpaceOnUse">
<stop stop-color="#8CDD79"/>
<stop offset="1" stop-color="#D4E6B6"/>
</linearGradient>
</defs>
</svg>
